<svg width="20" height="20" viewBox="0 0 20 20" fill="none" xmlns="http://www.w3.org/2000/svg">
<path d="M12.8845 6.63218L13.0008 6.86798L13.261 6.9058L19.2102 7.77041C19.2104 7.77044 19.2106 7.77047 19.2108 7.77051C19.3523 7.79187 19.4424 7.92024 19.4223 8.05038L19.4223 8.05037L19.4215 8.05591C19.4139 8.10893 19.3889 8.15876 19.3489 8.19811C19.3488 8.19821 19.3486 8.19832 19.3485 8.19842L15.044 12.3952L14.8558 12.5787L14.9002 12.8377L15.9174 18.7651L15.9175 18.7655C15.9407 18.8999 15.8505 19.029 15.7136 19.0526L15.7128 19.0528C15.6584 19.0622 15.6027 19.053 15.5577 19.029L15.5554 19.0278L10.2328 16.2294L10.0001 16.107L9.76739 16.2294L4.44474 19.0278L4.44396 19.0282C4.40285 19.0499 4.35647 19.0597 4.31009 19.0564C4.26371 19.0531 4.21918 19.0368 4.18156 19.0095C4.14394 18.9822 4.11473 18.9449 4.09724 18.9018L3.63396 19.0899L4.09723 18.9018C4.07974 18.8587 4.07467 18.8116 4.0826 18.7658L4.08271 18.7651L5.0999 12.8377L5.14436 12.5787L4.95615 12.3952L0.650679 8.19752L0.650647 8.19749C0.602976 8.15102 0.575702 8.08752 0.574821 8.02096C0.573943 7.95469 0.599291 7.89077 0.645318 7.84312C0.684622 7.80329 0.734314 7.77837 0.787192 7.77081L0.788392 7.77064L6.73917 6.9058L6.99936 6.86798L7.11568 6.63218L9.77463 1.24163C9.77478 1.24133 9.77493 1.24103 9.77508 1.24073C9.83822 1.11567 9.98977 1.06641 10.1116 1.12653L10.1121 1.12681C10.1608 1.15074 10.2002 1.19015 10.2241 1.23878L10.2243 1.23921L12.8845 6.63218Z" fill="white" stroke="#81B751"/>
</svg>
