<svg width="20" height="20" viewBox="0 0 20 20" fill="none" xmlns="http://www.w3.org/2000/svg">
<path d="M19.2837 7.27584L13.3329 6.41099L10.6727 1.01803C10.6001 0.87037 10.4805 0.750839 10.3329 0.678182C9.96257 0.49537 9.51257 0.647714 9.32742 1.01803L6.66726 6.41099L0.716481 7.27584C0.552418 7.29928 0.402418 7.37662 0.287574 7.49381C0.148735 7.63651 0.0722277 7.8285 0.0748646 8.02758C0.0775014 8.22666 0.159066 8.41655 0.301637 8.55553L4.6071 12.7532L3.58992 18.6805C3.56606 18.8184 3.58132 18.9602 3.63396 19.0899C3.6866 19.2195 3.77451 19.3318 3.88773 19.4141C4.00095 19.4963 4.13495 19.5452 4.27453 19.5551C4.4141 19.5651 4.55368 19.5357 4.67742 19.4704L10.0001 16.6719L15.3227 19.4704C15.468 19.5477 15.6368 19.5735 15.7985 19.5454C16.2063 19.4751 16.4805 19.0883 16.4102 18.6805L15.393 12.7532L19.6985 8.55553C19.8157 8.44068 19.893 8.29068 19.9165 8.12662C19.9798 7.71646 19.6938 7.33678 19.2837 7.27584Z" fill="#81B751"/>
</svg>
